<svg width="23" height="25" viewBox="0 0 23 25" fill="none" xmlns="http://www.w3.org/2000/svg">
<path d="M16.4724 3.36723C16.3563 3.25083 16.2184 3.15847 16.0665 3.09545C15.9147 3.03244 15.7519 3 15.5874 3C15.423 3 15.2602 3.03244 15.1084 3.09545C14.9565 3.15847 14.8186 3.25083 14.7024 3.36723L6.29244 11.7772C6.19974 11.8697 6.12619 11.9796 6.07601 12.1006C6.02583 12.2216 6 12.3513 6 12.4822C6 12.6132 6.02583 12.7429 6.07601 12.8639C6.12619 12.9848 6.19974 13.0947 6.29244 13.1872L14.7024 21.5972C15.1924 22.0872 15.9824 22.0872 16.4724 21.5972C16.9624 21.1072 16.9624 20.3172 16.4724 19.8272L9.13244 12.4872L16.4824 5.13723C16.9624 4.64723 16.9624 3.85723 16.4724 3.36723Z" fill="white"/>
</svg>
