<svg width="21" height="21" viewBox="0 0 21 21" fill="none" xmlns="http://www.w3.org/2000/svg">
<path d="M14.328 2.84361C15.3424 2.84664 16.3144 3.25096 17.0317 3.96827C17.749 4.68558 18.1534 5.65759 18.1564 6.67201V14.328C18.1534 15.3424 17.749 16.3144 17.0317 17.0317C16.3144 17.749 15.3424 18.1534 14.328 18.1564H6.67201C5.65759 18.1534 4.68558 17.749 3.96827 17.0317C3.25096 16.3144 2.84664 15.3424 2.84361 14.328V6.67201C2.84664 5.65759 3.25096 4.68558 3.96827 3.96827C4.68558 3.25096 5.65759 2.84664 6.67201 2.84361H14.328ZM14.328 1.3125H6.67201C3.72422 1.3125 1.3125 3.72422 1.3125 6.67201V14.328C1.3125 17.2758 3.72422 19.6875 6.67201 19.6875H14.328C17.2758 19.6875 19.6875 17.2758 19.6875 14.328V6.67201C19.6875 3.72422 17.2758 1.3125 14.328 1.3125Z" fill="white"/>
<path d="M15.4764 6.67212C15.2493 6.67212 15.0273 6.60477 14.8384 6.47857C14.6495 6.35238 14.5023 6.17302 14.4154 5.96317C14.3285 5.75332 14.3057 5.52241 14.3501 5.29963C14.3944 5.07686 14.5037 4.87223 14.6644 4.71161C14.825 4.551 15.0296 4.44162 15.2524 4.39731C15.4752 4.353 15.7061 4.37574 15.9159 4.46266C16.1258 4.54959 16.3051 4.69678 16.4313 4.88564C16.5575 5.0745 16.6249 5.29654 16.6249 5.52368C16.6252 5.67459 16.5957 5.82407 16.5381 5.96355C16.4805 6.10303 16.3959 6.22977 16.2892 6.33647C16.1825 6.44318 16.0558 6.52776 15.9163 6.58536C15.7768 6.64296 15.6273 6.67244 15.4764 6.67212ZM10.5 7.43747C11.1057 7.43747 11.6979 7.61709 12.2015 7.95362C12.7052 8.29015 13.0977 8.76846 13.3295 9.32809C13.5613 9.88771 13.622 10.5035 13.5038 11.0976C13.3856 11.6917 13.0939 12.2374 12.6656 12.6657C12.2373 13.094 11.6916 13.3857 11.0975 13.5039C10.5034 13.6221 9.88761 13.5614 9.32798 13.3296C8.76836 13.0978 8.29004 12.7053 7.95351 12.2016C7.61699 11.698 7.43737 11.1058 7.43737 10.5001C7.43823 9.68811 7.76118 8.90962 8.33535 8.33546C8.90952 7.76129 9.68801 7.43834 10.5 7.43747ZM10.5 5.90636C9.59144 5.90636 8.70329 6.17578 7.94785 6.68054C7.19241 7.18531 6.60362 7.90276 6.25593 8.74216C5.90824 9.58155 5.81727 10.5052 5.99452 11.3963C6.17177 12.2874 6.60928 13.1059 7.25173 13.7484C7.89418 14.3908 8.71271 14.8283 9.60381 15.0056C10.4949 15.1828 11.4186 15.0919 12.258 14.7442C13.0974 14.3965 13.8148 13.8077 14.3196 13.0523C14.8243 12.2968 15.0938 11.4087 15.0938 10.5001C15.0938 9.28177 14.6098 8.11333 13.7483 7.25184C12.8868 6.39034 11.7183 5.90636 10.5 5.90636Z" fill="white"/>
</svg>
