<svg width="18" height="17" viewBox="0 0 18 17" fill="none" xmlns="http://www.w3.org/2000/svg">
<path d="M6.46094 16.2188C6.3776 16.2188 6.30729 16.1927 6.25 16.1406C6.19271 16.0938 6.16146 16.0312 6.15625 15.9531C6.08333 15.4271 6.01042 15.0182 5.9375 14.7266C5.86979 14.4349 5.75781 14.2135 5.60156 14.0625C5.45052 13.9115 5.21875 13.7943 4.90625 13.7109C4.59375 13.6276 4.16406 13.5339 3.61719 13.4297C3.4349 13.3932 3.34375 13.2917 3.34375 13.125C3.34375 13.0417 3.36979 12.974 3.42188 12.9219C3.47917 12.8698 3.54688 12.8359 3.625 12.8203C4.16667 12.7526 4.59375 12.6823 4.90625 12.6094C5.21875 12.5312 5.45052 12.4141 5.60156 12.2578C5.75781 12.1016 5.8724 11.8724 5.94531 11.5703C6.01823 11.2682 6.08854 10.849 6.15625 10.3125C6.17708 10.125 6.27865 10.0312 6.46094 10.0312C6.63802 10.0312 6.73698 10.1276 6.75781 10.3203C6.82031 10.8411 6.88542 11.25 6.95312 11.5469C7.02604 11.8385 7.14062 12.0573 7.29688 12.2031C7.45833 12.349 7.69531 12.4635 8.00781 12.5469C8.32031 12.6302 8.7474 12.7214 9.28906 12.8203C9.47135 12.8568 9.5625 12.9583 9.5625 13.125C9.5625 13.2969 9.46094 13.3984 9.25781 13.4297C8.71615 13.513 8.29167 13.5938 7.98438 13.6719C7.68229 13.75 7.45312 13.8646 7.29688 14.0156C7.14062 14.1719 7.02604 14.3984 6.95312 14.6953C6.88542 14.9974 6.82031 15.4115 6.75781 15.9375C6.73698 16.125 6.63802 16.2188 6.46094 16.2188ZM2.69531 9.32812C2.63281 9.32812 2.58333 9.3099 2.54688 9.27344C2.51042 9.23177 2.48698 9.18229 2.47656 9.125C2.40885 8.75 2.34635 8.45312 2.28906 8.23438C2.23177 8.01562 2.14583 7.84896 2.03125 7.73438C1.92188 7.61458 1.75521 7.52344 1.53125 7.46094C1.3125 7.39844 1.0026 7.33073 0.601562 7.25781C0.466146 7.23177 0.398438 7.15625 0.398438 7.03125C0.398438 6.90625 0.466146 6.83073 0.601562 6.80469C1.0026 6.73698 1.3151 6.67188 1.53906 6.60938C1.76302 6.54688 1.92969 6.45833 2.03906 6.34375C2.15365 6.22917 2.23698 6.0625 2.28906 5.84375C2.34635 5.625 2.40885 5.32292 2.47656 4.9375C2.4974 4.80208 2.57031 4.73438 2.69531 4.73438C2.82031 4.73438 2.89323 4.80208 2.91406 4.9375C2.98177 5.31771 3.04427 5.61719 3.10156 5.83594C3.15885 6.04948 3.24219 6.21354 3.35156 6.32812C3.46094 6.44271 3.6276 6.53385 3.85156 6.60156C4.07552 6.66927 4.38802 6.73698 4.78906 6.80469C4.92969 6.83073 5 6.90625 5 7.03125C5 7.15625 4.92969 7.23177 4.78906 7.25781C4.38802 7.32552 4.07552 7.39062 3.85156 7.45312C3.6276 7.51562 3.45833 7.60677 3.34375 7.72656C3.23438 7.84115 3.15104 8.00781 3.09375 8.22656C3.04167 8.44531 2.98177 8.74479 2.91406 9.125C2.89323 9.26042 2.82031 9.32812 2.69531 9.32812ZM7 4.21094C6.89583 4.21094 6.83333 4.15365 6.8125 4.03906C6.75 3.71615 6.69271 3.46354 6.64062 3.28125C6.59375 3.09896 6.52344 2.95833 6.42969 2.85938C6.33594 2.76042 6.19531 2.6849 6.00781 2.63281C5.82031 2.57552 5.55469 2.51042 5.21094 2.4375C5.09635 2.41667 5.03906 2.35417 5.03906 2.25C5.03906 2.14583 5.09635 2.08333 5.21094 2.0625C5.55469 1.99479 5.81771 1.9349 6 1.88281C6.1875 1.83073 6.32812 1.75521 6.42188 1.65625C6.51562 1.55729 6.58854 1.41667 6.64062 1.23438C6.69271 1.04688 6.75 0.791667 6.8125 0.46875C6.83333 0.348958 6.89583 0.289062 7 0.289062C7.10417 0.289062 7.16667 0.348958 7.1875 0.46875C7.25521 0.791667 7.3125 1.04427 7.35938 1.22656C7.40625 1.40365 7.47656 1.54167 7.57031 1.64062C7.66406 1.73958 7.80469 1.81771 7.99219 1.875C8.1849 1.92708 8.45052 1.98958 8.78906 2.0625C8.90365 2.08333 8.96094 2.14583 8.96094 2.25C8.96094 2.35938 8.90104 2.42188 8.78125 2.4375C8.44792 2.51042 8.1875 2.57552 8 2.63281C7.8125 2.6849 7.67188 2.76042 7.57812 2.85938C7.48438 2.95312 7.41146 3.09375 7.35938 3.28125C7.3125 3.46354 7.25521 3.71615 7.1875 4.03906C7.16667 4.15365 7.10417 4.21094 7 4.21094ZM13.6719 6.99219C13.5469 6.99219 13.474 6.92448 13.4531 6.78906C13.3854 6.40885 13.3229 6.10938 13.2656 5.89062C13.2135 5.67188 13.1302 5.50521 13.0156 5.39062C12.9062 5.27604 12.7396 5.1875 12.5156 5.125C12.2917 5.05729 11.9792 4.98698 11.5781 4.91406C11.4427 4.89323 11.375 4.82031 11.375 4.69531C11.375 4.63281 11.3932 4.58333 11.4297 4.54688C11.4714 4.50521 11.5234 4.47917 11.5859 4.46875C11.9818 4.40625 12.2917 4.34375 12.5156 4.28125C12.7396 4.21875 12.9062 4.13021 13.0156 4.01562C13.125 3.89583 13.2083 3.72656 13.2656 3.50781C13.3229 3.28385 13.3854 2.98177 13.4531 2.60156C13.474 2.46615 13.5469 2.39844 13.6719 2.39844C13.7969 2.39844 13.8698 2.46615 13.8906 2.60156C13.9583 2.98177 14.0182 3.28125 14.0703 3.5C14.1276 3.71354 14.2109 3.88021 14.3203 4C14.4349 4.11458 14.6042 4.20312 14.8281 4.26562C15.0573 4.32812 15.3698 4.39583 15.7656 4.46875C15.9062 4.49479 15.9766 4.57031 15.9766 4.69531C15.9766 4.82031 15.9062 4.89323 15.7656 4.91406C15.3646 4.98698 15.0521 5.05469 14.8281 5.11719C14.6094 5.17969 14.4453 5.27083 14.3359 5.39062C14.2266 5.50521 14.1432 5.67188 14.0859 5.89062C14.0286 6.10938 13.9635 6.40885 13.8906 6.78906C13.8698 6.92448 13.7969 6.99219 13.6719 6.99219ZM16.0703 16.0234L8.64844 8.57031C8.46094 8.3776 8.36719 8.14583 8.36719 7.875C8.36719 7.60417 8.46094 7.36979 8.64844 7.17188C8.83073 6.97917 9.0625 6.88281 9.34375 6.88281C9.625 6.88281 9.85677 6.97917 10.0391 7.17188L17.4688 14.6328C17.651 14.8255 17.7422 15.0547 17.7422 15.3203C17.7474 15.5911 17.6562 15.8255 17.4688 16.0234C17.2812 16.2161 17.0469 16.3125 16.7656 16.3125C16.4896 16.3125 16.2578 16.2161 16.0703 16.0234ZM11.6484 10.6172L12.0938 10.1797L9.75 7.83594C9.66667 7.7526 9.57812 7.70312 9.48438 7.6875C9.39583 7.67188 9.31771 7.69792 9.25 7.76562C9.17188 7.84375 9.14062 7.92708 9.15625 8.01562C9.17708 8.10417 9.22656 8.1875 9.30469 8.26562L11.6484 10.6172Z" fill="white"/>
</svg>
