<svg width="29" height="23" viewBox="0 0 29 23" fill="none" xmlns="http://www.w3.org/2000/svg">
<path d="M9.18604 22.603C8.86507 22.603 8.61605 22.4979 8.43896 22.2876C8.26742 22.0773 8.18164 21.7951 8.18164 21.4409V18.5854H7.55908C6.55745 18.5854 5.70801 18.4028 5.01074 18.0376C4.31348 17.6724 3.78223 17.1411 3.41699 16.4438C3.05729 15.7466 2.87744 14.9027 2.87744 13.9121V5.44531C2.87744 4.45475 3.05729 3.61084 3.41699 2.91357C3.78223 2.21631 4.31348 1.68506 5.01074 1.31982C5.70801 0.949056 6.55745 0.763672 7.55908 0.763672H21.5791C22.5807 0.763672 23.4302 0.949056 24.1274 1.31982C24.8247 1.68506 25.3532 2.21631 25.7129 2.91357C26.0781 3.61084 26.2607 4.45475 26.2607 5.44531V13.9121C26.2607 14.8971 26.0781 15.7383 25.7129 16.4355C25.3532 17.1328 24.8247 17.6641 24.1274 18.0293C23.4302 18.4001 22.5807 18.5854 21.5791 18.5854H14.2412L10.4976 21.8809C10.2264 22.1188 9.99674 22.2987 9.80859 22.4204C9.62044 22.5422 9.41292 22.603 9.18604 22.603ZM9.55127 20.9346L13.0459 17.5728C13.2285 17.3846 13.4028 17.2601 13.5688 17.1992C13.7349 17.1439 13.9479 17.1162 14.208 17.1162H21.5708C22.2791 17.1162 22.8713 16.9917 23.3472 16.7427C23.8231 16.4937 24.1828 16.1312 24.4263 15.6553C24.6698 15.1738 24.7915 14.5872 24.7915 13.8955V5.45361C24.7915 4.76188 24.6698 4.17806 24.4263 3.70215C24.1828 3.2207 23.8231 2.85547 23.3472 2.60645C22.8713 2.35742 22.2791 2.23291 21.5708 2.23291H7.56738C6.85352 2.23291 6.25863 2.35742 5.78271 2.60645C5.3068 2.85547 4.9471 3.2207 4.70361 3.70215C4.46566 4.17806 4.34668 4.76188 4.34668 5.45361V13.8955C4.34668 14.5872 4.46566 15.1738 4.70361 15.6553C4.9471 16.1312 5.3068 16.4937 5.78271 16.7427C6.25863 16.9917 6.85352 17.1162 7.56738 17.1162H8.8623C9.11133 17.1162 9.28841 17.1688 9.39355 17.2739C9.4987 17.3791 9.55127 17.5589 9.55127 17.8135V20.9346ZM8.93701 6.62402C8.7876 6.62402 8.66032 6.57145 8.55518 6.46631C8.45003 6.36117 8.39746 6.23112 8.39746 6.07617C8.39746 5.92676 8.45003 5.79948 8.55518 5.69434C8.66032 5.58919 8.7876 5.53662 8.93701 5.53662H19.9438C20.0933 5.53662 20.2205 5.58919 20.3257 5.69434C20.4308 5.79948 20.4834 5.92676 20.4834 6.07617C20.4834 6.23112 20.4308 6.36117 20.3257 6.46631C20.2205 6.57145 20.0933 6.62402 19.9438 6.62402H8.93701ZM8.93701 10.1104C8.7876 10.1104 8.66032 10.0578 8.55518 9.95264C8.45003 9.84749 8.39746 9.71745 8.39746 9.5625C8.39746 9.41309 8.45003 9.28581 8.55518 9.18066C8.66032 9.06999 8.7876 9.01465 8.93701 9.01465H19.9438C20.0933 9.01465 20.2205 9.06999 20.3257 9.18066C20.4308 9.28581 20.4834 9.41309 20.4834 9.5625C20.4834 9.71745 20.4308 9.84749 20.3257 9.95264C20.2205 10.0578 20.0933 10.1104 19.9438 10.1104H8.93701ZM8.93701 13.605C8.7876 13.605 8.66032 13.5524 8.55518 13.4473C8.45003 13.3421 8.39746 13.2121 8.39746 13.0571C8.39746 12.9022 8.45003 12.7721 8.55518 12.667C8.66032 12.5618 8.7876 12.5093 8.93701 12.5093H16.1338C16.2832 12.5093 16.4105 12.5618 16.5156 12.667C16.6208 12.7721 16.6733 12.9022 16.6733 13.0571C16.6733 13.2121 16.6208 13.3421 16.5156 13.4473C16.4105 13.5524 16.2832 13.605 16.1338 13.605H8.93701Z" fill="white"/>
</svg>
