<svg width="21" height="22" viewBox="0 0 21 22" fill="none" xmlns="http://www.w3.org/2000/svg">
<path d="M0.604492 17.083C0.604492 16.7233 0.704102 16.3774 0.90332 16.0454C1.10807 15.7134 1.35986 15.3869 1.65869 15.0659C1.96305 14.745 2.26742 14.4268 2.57178 14.1113C2.77653 13.8955 2.93978 13.6299 3.06152 13.3145C3.1888 12.9935 3.28841 12.6476 3.36035 12.2769C3.43229 11.9006 3.4904 11.5132 3.53467 11.1147C3.57894 10.7163 3.61768 10.3262 3.65088 9.94434C3.70068 8.65495 3.86393 7.51497 4.14062 6.52441C4.41732 5.52832 4.83789 4.69548 5.40234 4.02588C5.97233 3.35628 6.7194 2.86377 7.64355 2.54834C7.80957 1.84001 8.15544 1.24788 8.68115 0.771973C9.20687 0.296061 9.85156 0.0581055 10.6152 0.0581055C11.3734 0.0581055 12.0153 0.296061 12.541 0.771973C13.0723 1.24788 13.4209 1.84001 13.5869 2.54834C14.5055 2.86377 15.2498 3.35628 15.8198 4.02588C16.3898 4.69548 16.8132 5.52832 17.0898 6.52441C17.3665 7.51497 17.5298 8.65495 17.5796 9.94434C17.6128 10.3262 17.6488 10.7163 17.6875 11.1147C17.7318 11.5132 17.7899 11.9006 17.8618 12.2769C17.9393 12.6476 18.0389 12.9935 18.1606 13.3145C18.2879 13.6299 18.4539 13.8955 18.6587 14.1113C18.9631 14.4268 19.2646 14.745 19.5635 15.0659C19.8678 15.3869 20.1196 15.7134 20.3188 16.0454C20.5236 16.3774 20.626 16.7233 20.626 17.083C20.626 17.4261 20.5015 17.7 20.2524 17.9048C20.009 18.1151 19.6714 18.2202 19.2397 18.2202H14.3755C14.3589 18.7293 14.2537 19.208 14.0601 19.6562C13.8719 20.1045 13.609 20.5002 13.2715 20.8433C12.9395 21.1919 12.5465 21.4631 12.0928 21.6567C11.6445 21.8504 11.152 21.9473 10.6152 21.9473C10.0785 21.9473 9.58317 21.8477 9.12939 21.6484C8.68115 21.4548 8.28825 21.1864 7.95068 20.8433C7.61865 20.5002 7.35579 20.1017 7.16211 19.6479C6.97396 19.1997 6.87158 18.7238 6.85498 18.2202H1.98242C1.55632 18.2202 1.21875 18.1151 0.969727 17.9048C0.726237 17.7 0.604492 17.4261 0.604492 17.083ZM2.37256 16.834H18.8579V16.7095C18.8081 16.5767 18.7057 16.4162 18.5508 16.228C18.4014 16.0399 18.2243 15.8351 18.0195 15.6138C17.8203 15.3924 17.6211 15.1738 17.4219 14.958C17.2005 14.7145 17.0151 14.4268 16.8657 14.0947C16.7163 13.7572 16.5918 13.3836 16.4922 12.9741C16.3981 12.5591 16.3234 12.1108 16.2681 11.6294C16.2127 11.1424 16.1657 10.625 16.127 10.0771C16.0716 8.66602 15.8973 7.53434 15.604 6.68213C15.3162 5.82438 14.9344 5.17415 14.4585 4.73145C13.9826 4.28874 13.4375 3.98438 12.8232 3.81836C12.6738 3.77962 12.5576 3.72428 12.4746 3.65234C12.3916 3.57487 12.3446 3.46419 12.3335 3.32031C12.3058 2.76693 12.1398 2.31038 11.8354 1.95068C11.5311 1.59098 11.1243 1.41113 10.6152 1.41113C10.1061 1.41113 9.69938 1.59098 9.39502 1.95068C9.09066 2.31038 8.92188 2.76693 8.88867 3.32031C8.8776 3.46419 8.83057 3.57487 8.74756 3.65234C8.67008 3.72428 8.55664 3.77962 8.40723 3.81836C7.79297 3.98438 7.24512 4.28874 6.76367 4.73145C6.28776 5.17415 5.90592 5.82438 5.61816 6.68213C5.3304 7.53434 5.15885 8.66602 5.10352 10.0771C5.06478 10.625 5.01497 11.1424 4.9541 11.6294C4.89876 12.1108 4.82406 12.5591 4.72998 12.9741C4.6359 13.3836 4.51416 13.7572 4.36475 14.0947C4.21533 14.4268 4.02995 14.7145 3.80859 14.958C3.60938 15.1738 3.40739 15.3924 3.20264 15.6138C3.00342 15.8351 2.82633 16.0399 2.67139 16.228C2.52197 16.4162 2.42236 16.5767 2.37256 16.7095V16.834ZM8.28271 18.2202C8.32145 18.9673 8.55664 19.5594 8.98828 19.9966C9.41992 20.4393 9.96224 20.6606 10.6152 20.6606C11.2682 20.6606 11.8105 20.4393 12.2422 19.9966C12.6738 19.5594 12.909 18.9673 12.9478 18.2202H8.28271Z" fill="white"/>
</svg>
