<svg width="34" height="34" viewBox="0 0 34 34" fill="none" xmlns="http://www.w3.org/2000/svg">
<path fill-rule="evenodd" clip-rule="evenodd" d="M29.4637 17.1303C29.4951 17.0382 29.4993 16.9397 29.4743 16.8457C28.8805 14.6201 17.8561 8.29342 14.3919 7.22972C13.4894 6.95252 12.8355 7.06414 12.4516 7.56051C11.3388 8.99719 13.6369 13.4646 14.978 15.8006L21.926 16.0446C22.3286 16.0587 22.6435 16.3974 22.6295 16.8012C22.6154 17.205 22.2777 17.5209 21.8751 17.5068L14.8605 17.2597C13.3508 19.5262 10.8429 23.7129 11.8374 25.1999C11.8746 25.2557 11.9154 25.3082 11.9599 25.356C12.3272 25.751 12.9289 25.8549 13.7493 25.6649C17.2769 24.8482 28.715 19.3117 29.4637 17.1303Z" fill="#DDDDE4"/>
</svg>
