<svg width="20" height="20" viewBox="0 0 20 20" fill="none" xmlns="http://www.w3.org/2000/svg">
<path d="M16.1013 4.63442C15.9748 4.56901 15.8516 4.49731 15.7322 4.41958C15.385 4.19007 15.0667 3.91964 14.7841 3.61411C14.0771 2.80513 13.813 1.98442 13.7158 1.40981H13.7197C13.6384 0.932861 13.672 0.624268 13.6771 0.624268H10.4568V13.0766C10.4568 13.2438 10.4568 13.409 10.4498 13.5723C10.4498 13.5926 10.4478 13.6114 10.4466 13.6332C10.4466 13.6422 10.4466 13.6516 10.4447 13.661C10.4447 13.6633 10.4447 13.6657 10.4447 13.668C10.4107 14.1148 10.2675 14.5464 10.0276 14.9248C9.78771 15.3033 9.45848 15.617 9.06889 15.8383C8.66286 16.0693 8.20362 16.1905 7.73647 16.1899C6.23608 16.1899 5.02006 14.9665 5.02006 13.4555C5.02006 11.9446 6.23608 10.7211 7.73647 10.7211C8.02049 10.7209 8.30276 10.7656 8.5728 10.8536L8.57671 7.57466C7.75693 7.46876 6.9241 7.53392 6.13076 7.766C5.33742 7.99809 4.60078 8.39207 3.96733 8.92309C3.41228 9.40536 2.94564 9.98079 2.58842 10.6235C2.45249 10.8579 1.93959 11.7997 1.87749 13.3282C1.83842 14.1957 2.09897 15.0946 2.22319 15.4661V15.4739C2.30131 15.6926 2.60405 16.4391 3.09741 17.0684C3.49523 17.5732 3.96525 18.0166 4.49233 18.3844V18.3766L4.50014 18.3844C6.05913 19.4438 7.78764 19.3743 7.78764 19.3743C8.08686 19.3622 9.08921 19.3743 10.2275 18.8348C11.49 18.2368 12.2087 17.3457 12.2087 17.3457C12.6679 16.8134 13.033 16.2066 13.2884 15.5516C13.5798 14.7856 13.6771 13.8668 13.6771 13.4997V6.89341C13.7162 6.91684 14.2365 7.26098 14.2365 7.26098C14.2365 7.26098 14.9861 7.74145 16.1556 8.05434C16.9947 8.277 18.1251 8.32388 18.1251 8.32388V5.127C17.7291 5.16997 16.9248 5.04497 16.1013 4.63442Z" fill="white"/>
</svg>
