<svg width="21" height="21" viewBox="0 0 21 21" fill="none" xmlns="http://www.w3.org/2000/svg">
<path d="M20.3433 4.49C19.6048 4.81088 18.8234 5.02229 18.0238 5.11754C18.8641 4.6255 19.496 3.84382 19.801 2.9191C19.0066 3.38364 18.1389 3.70958 17.2351 3.88297C16.8545 3.4841 16.3968 3.16679 15.8898 2.95033C15.3827 2.73387 14.837 2.62277 14.2857 2.62379C12.0536 2.62379 10.2473 4.40386 10.2473 6.5982C10.2457 6.90343 10.2807 7.20774 10.3514 7.50465C8.75089 7.42961 7.18362 7.02131 5.7499 6.30586C4.31618 5.59042 3.04758 4.58358 2.02527 3.34976C1.66662 3.95438 1.47695 4.64423 1.47607 5.34722C1.47607 6.72535 2.19508 7.94351 3.28076 8.65719C2.63753 8.64192 2.00747 8.47167 1.44408 8.1609V8.21012C1.44408 10.1379 2.83861 11.7416 4.68432 12.1066C4.33724 12.1991 3.97957 12.246 3.62037 12.2461C3.36549 12.2465 3.11119 12.2218 2.86117 12.1722C3.37428 13.7513 4.86766 14.8998 6.63666 14.9326C5.19922 16.0404 3.43441 16.6391 1.61963 16.6347C1.2975 16.6342 0.97567 16.6151 0.655762 16.5773C2.50195 17.7562 4.648 18.3798 6.83846 18.3738C14.2771 18.3738 18.3409 12.3158 18.3409 7.06168C18.3409 6.88941 18.3364 6.71715 18.3282 6.54898C19.1169 5.98791 19.7993 5.29067 20.3433 4.49Z" fill="white"/>
</svg>
